<?xml version="1.0" encoding="utf-8"?>
<!-- Generator: Adobe Illustrator 21.0.0, SVG Export Plug-In . SVG Version: 6.00 Build 0)  -->
<svg version="1.1" id="レイヤー_1" xmlns="http://www.w3.org/2000/svg" xmlns:xlink="http://www.w3.org/1999/xlink" x="0px"
	 y="0px" viewBox="0 0 667.8 316" style="enable-background:new 0 0 667.8 316;" xml:space="preserve">
<style type="text/css">
	.st0{fill:url(#SVGID_1_);}
	.st1{fill:url(#SVGID_2_);}
</style>
<g>
	<linearGradient id="SVGID_1_" gradientUnits="userSpaceOnUse" x1="166.6577" y1="267.7604" x2="501.1785" y2="-66.7604">
		<stop  offset="0" style="stop-color:#E0007F"/>
		<stop  offset="1" style="stop-color:#FFD600"/>
	</linearGradient>
	<path class="st0" d="M656.4,109h-645c-4.7,0-8.5-3.8-8.5-8.5v0c0-4.7,3.8-8.5,8.5-8.5h645c4.7,0,8.5,3.8,8.5,8.5v0
		C664.9,105.2,661.1,109,656.4,109z"/>
	<linearGradient id="SVGID_2_" gradientUnits="userSpaceOnUse" x1="166.6577" y1="427.7604" x2="501.1785" y2="93.2396">
		<stop  offset="0" style="stop-color:#E0007F"/>
		<stop  offset="1" style="stop-color:#FFD600"/>
	</linearGradient>
	<path class="st1" d="M656.4,269h-645c-4.7,0-8.5-3.8-8.5-8.5l0,0c0-4.7,3.8-8.5,8.5-8.5h645c4.7,0,8.5,3.8,8.5,8.5l0,0
		C664.9,265.2,661.1,269,656.4,269z"/>
</g>
<rect x="-102.1" width="62" height="316"/>
<rect x="-41.1" y="266" width="30" height="50"/>
</svg>
