<?xml version="1.0" encoding="utf-8"?>
<!-- Generator: Adobe Illustrator 21.0.0, SVG Export Plug-In . SVG Version: 6.00 Build 0)  -->
<svg version="1.1" id="レイヤー_1" xmlns="http://www.w3.org/2000/svg" xmlns:xlink="http://www.w3.org/1999/xlink" x="0px"
	 y="0px" viewBox="0 0 1000 473.9" style="enable-background:new 0 0 1000 473.9;" xml:space="preserve">
<style type="text/css">
	.st0{fill:#FFFFFF;}
</style>
<g>
	<path class="st0" d="M0,1h57.4v26.5h-23v25.1h21.5v25.2H34.4v29.1h25.3v26.5H0V1z"/>
	<path class="st0" d="M146.5,1v132.4h-30.2L98.4,73.2v60.2H69.6V1h28.8l19.3,59.6V1H146.5z"/>
	<path class="st0" d="M229.7,1v26.5h-20.4v105.9h-34.4V27.5h-20.4V1H229.7z"/>
	<path class="st0" d="M237.5,1h57.4v26.5h-23v25.1h21.5v25.2h-21.5v29.1h25.3v26.5h-59.7V1z"/>
	<path class="st0" d="M307.1,1h24.4c16.2,0,27.2,0.6,33,1.9c5.8,1.3,10.4,4.5,14.1,9.6c3.6,5.2,5.4,13.4,5.4,24.7
		c0,10.3-1.3,17.2-3.8,20.8c-2.6,3.5-7.6,5.7-15.1,6.4c6.8,1.7,11.4,4,13.7,6.8c2.3,2.8,3.8,5.4,4.4,7.8c0.6,2.4,0.9,8.9,0.9,19.6
		v34.9h-32v-44c0-7.1-0.6-11.5-1.7-13.2c-1.1-1.7-4-2.5-8.8-2.5v59.7h-34.4V1z M341.5,23.7v29.4c3.9,0,6.6-0.5,8.1-1.6
		c1.6-1.1,2.3-4.5,2.3-10.3v-7.3c0-4.2-0.7-7-2.2-8.3C348.3,24.3,345.5,23.7,341.5,23.7z"/>
	<path class="st0" d="M466.7,1v26.5h-20.4v105.9h-34.4V27.5h-20.4V1H466.7z"/>
	<path class="st0" d="M534,1l19.7,132.4h-35.2l-1.8-23.8h-12.3l-2.1,23.8h-35.6L484.3,1H534z M515.8,86.1c-1.7-15-3.5-33.5-5.2-55.6
		c-3.5,25.4-5.7,43.9-6.6,55.6H515.8z"/>
	<path class="st0" d="M636.5,1v132.4h-30.2l-17.9-60.2v60.2h-28.8V1h28.8l19.3,59.6V1H636.5z"/>
	<path class="st0" d="M756.5,1v132.4h-30.1l0-89.4l-12,89.4h-21.3l-12.6-87.3l0,87.3h-30.1V1h44.6c1.3,8,2.7,17.3,4.1,28.1l4.9,33.7
		L711.7,1H756.5z"/>
	<path class="st0" d="M770.3,1h57.4v26.5h-23v25.1h21.5v25.2h-21.5v29.1H830v26.5h-59.7V1z"/>
	<path class="st0" d="M916.8,1v132.4h-30.2l-17.9-60.2v60.2h-28.8V1h28.8L888,60.6V1H916.8z"/>
	<path class="st0" d="M1000,1v26.5h-20.4v105.9h-34.4V27.5h-20.4V1H1000z"/>
	<path class="st0" d="M34.4,170.3v132.4H0V170.3H34.4z"/>
	<path class="st0" d="M117.6,170.3v26.5H97.2v105.9H62.7V196.8H42.4v-26.5H117.6z"/>
	<path class="st0" d="M198.4,210.4h-32v-9.8c0-4.6-0.4-7.5-1.2-8.8c-0.8-1.3-2.2-1.9-4.1-1.9c-2.1,0-3.6,0.8-4.7,2.5
		c-1.1,1.7-1.6,4.3-1.6,7.7c0,4.4,0.6,7.7,1.8,10c1.1,2.2,4.4,4.9,9.7,8.1c15.3,9.1,25,16.6,29,22.4c4,5.8,6,15.2,6,28.2
		c0,9.4-1.1,16.4-3.3,20.9c-2.2,4.5-6.5,8.2-12.8,11.2c-6.3,3-13.7,4.5-22.1,4.5c-9.2,0-17.1-1.7-23.6-5.2
		c-6.5-3.5-10.8-7.9-12.8-13.3c-2-5.4-3-13.1-3-23v-8.7h32v16.1c0,5,0.5,8.2,1.3,9.6c0.9,1.4,2.5,2.1,4.8,2.1c2.3,0,4-0.9,5.1-2.7
		c1.1-1.8,1.7-4.5,1.7-8c0-7.8-1.1-12.9-3.2-15.3c-2.2-2.4-7.6-6.4-16.1-12c-8.6-5.7-14.2-9.8-17-12.4c-2.8-2.6-5.1-6.1-6.9-10.6
		c-1.8-4.5-2.7-10.3-2.7-17.3c0-10.1,1.3-17.6,3.9-22.2c2.6-4.7,6.8-8.4,12.6-11c5.8-2.6,12.8-4,20.9-4c8.9,0,16.6,1.4,22.9,4.3
		c6.3,2.9,10.5,6.5,12.5,10.9c2,4.4,3.1,11.8,3.1,22.4V210.4z"/>
	<path class="st0" d="M0,339.7h57.4v26.5h-23v25.1h21.5v25.2H34.4v29.1h25.3v26.5H0V339.7z"/>
	<path class="st0" d="M151.5,339.7l-17.5,132.4H81.6L61.7,339.7h36.3c4.2,36.5,7.2,67.3,9,92.6c1.8-25.5,3.7-48.2,5.7-68l2.4-24.6
		H151.5z"/>
	<path class="st0" d="M157.3,339.7h57.4v26.5h-23v25.1h21.5v25.2h-21.5v29.1H217v26.5h-59.7V339.7z"/>
	<path class="st0" d="M226.9,339.7h24.4c16.2,0,27.2,0.6,33,1.9c5.8,1.3,10.4,4.5,14.1,9.6c3.6,5.2,5.4,13.4,5.4,24.7
		c0,10.3-1.3,17.2-3.8,20.8c-2.6,3.5-7.6,5.7-15.1,6.4c6.8,1.7,11.4,4,13.7,6.8c2.3,2.8,3.8,5.4,4.4,7.8c0.6,2.4,0.9,8.9,0.9,19.6
		v34.9h-32v-44c0-7.1-0.6-11.5-1.7-13.2c-1.1-1.7-4-2.5-8.8-2.5v59.7h-34.4V339.7z M261.3,362.3v29.4c3.9,0,6.6-0.5,8.1-1.6
		c1.6-1.1,2.3-4.5,2.3-10.3v-7.3c0-4.2-0.7-7-2.2-8.3C268,363,265.3,362.3,261.3,362.3z"/>
	<path class="st0" d="M390.4,339.7l-25.1,84.5v47.9h-31.9v-47.9l-24.2-84.5h31.6c4.9,25.8,7.7,43.2,8.4,52.2
		c1.9-14.1,5.1-31.5,9.6-52.2H390.4z"/>
	<path class="st0" d="M465.7,339.7v26.5h-20.4v105.9h-34.4V366.2h-20.4v-26.5H465.7z"/>
	<path class="st0" d="M552.7,339.7v132.4h-34.4v-55.6H508v55.6h-34.4V339.7H508V387h10.3v-47.4H552.7z"/>
	<path class="st0" d="M601,339.7v132.4h-34.4V339.7H601z"/>
	<path class="st0" d="M691.7,339.7v132.4h-30.2l-17.9-60.2v60.2h-28.8V339.7h28.8l19.3,59.6v-59.6H691.7z"/>
	<path class="st0" d="M784.5,388.4h-34.4v-12c0-7.6-0.3-12.3-1-14.2c-0.7-1.9-2.2-2.9-4.7-2.9c-2.1,0-3.6,0.8-4.3,2.5
		c-0.8,1.6-1.1,5.8-1.1,12.6v63.5c0,5.9,0.4,9.9,1.1,11.7c0.8,1.9,2.3,2.8,4.6,2.8c2.5,0,4.2-1.1,5.1-3.2c0.9-2.1,1.3-6.3,1.3-12.4
		v-15.7h-7V401h40.3v71.1h-21.6l-3.2-9.5c-2.3,4.1-5.3,7.2-8.9,9.2c-3.6,2-7.8,3.1-12.6,3.1c-5.8,0-11.2-1.4-16.2-4.2
		c-5-2.8-8.9-6.3-11.5-10.4s-4.3-8.5-4.9-13c-0.7-4.6-1-11.4-1-20.5v-39.3c0-12.6,0.7-21.8,2-27.6c1.4-5.7,5.3-11,11.7-15.7
		c6.5-4.8,14.8-7.2,25.1-7.2c10.1,0,18.5,2.1,25.1,6.2c6.7,4.1,11,9.1,13,14.8c2,5.7,3,14,3,24.8V388.4z"/>
	<path class="st0" d="M818.8,445.1v27h-24.9v-27H818.8z"/>
</g>
</svg>
