<?xml version="1.0" encoding="utf-8"?>
<!-- Generator: Adobe Illustrator 21.0.0, SVG Export Plug-In . SVG Version: 6.00 Build 0)  -->
<svg version="1.1" id="レイヤー_1" xmlns="http://www.w3.org/2000/svg" xmlns:xlink="http://www.w3.org/1999/xlink" x="0px"
	 y="0px" viewBox="0 0 662 344" style="enable-background:new 0 0 662 344;" xml:space="preserve">
<style type="text/css">
	.st0{fill:url(#SVGID_1_);}
	.st1{fill:url(#SVGID_2_);}
</style>
<linearGradient id="SVGID_1_" gradientUnits="userSpaceOnUse" x1="165.2396" y1="282.2604" x2="496.7604" y2="-49.2604">
	<stop  offset="0" style="stop-color:#E0007F"/>
	<stop  offset="1" style="stop-color:#FFD600"/>
</linearGradient>
<path class="st0" d="M650.5,125h-639c-4.7,0-8.5-3.8-8.5-8.5v0c0-4.7,3.8-8.5,8.5-8.5h639c4.7,0,8.5,3.8,8.5,8.5v0
	C659,121.2,655.2,125,650.5,125z"/>
<linearGradient id="SVGID_2_" gradientUnits="userSpaceOnUse" x1="165.2396" y1="442.2604" x2="496.7604" y2="110.7396">
	<stop  offset="0" style="stop-color:#E0007F"/>
	<stop  offset="1" style="stop-color:#FFD600"/>
</linearGradient>
<path class="st1" d="M650.5,285h-639c-4.7,0-8.5-3.8-8.5-8.5l0,0c0-4.7,3.8-8.5,8.5-8.5h639c4.7,0,8.5,3.8,8.5,8.5l0,0
	C659,281.2,655.2,285,650.5,285z"/>
</svg>
